<?xml version="1.0" encoding="utf-8"?>
<!-- Generator: Adobe Illustrator 24.1.3, SVG Export Plug-In . SVG Version: 6.00 Build 0)  -->
<svg version="1.1" id="Layer_1" xmlns="http://www.w3.org/2000/svg" xmlns:xlink="http://www.w3.org/1999/xlink" x="0px" y="0px"
	 viewBox="0 0 1920 539" style="enable-background:new 0 0 1920 539;" xml:space="preserve">
<style type="text/css">
	.st0{fill:#FFFFFF;}
</style>
<g>
	<path class="st0" d="M578.6,377.8c-47.2,0-70.2-25.1-70.2-76.7v-230c0-6.1-2.7-8.8-8.8-8.8h-23.8V14.1h50.9
		c24,0,34.7,10.7,34.7,34.7l0.8,249.3c0,24.6,7,34.1,25,34.1c7.9,0,13.4-0.5,13.5-0.5l2.6-0.2l-0.6,45.2l-2.1,0.2
		C600.5,376.8,590.2,377.8,578.6,377.8z"/>
</g>
<g>
	<path class="st0" d="M967.9,378c-47.2,0-70.2-25.1-70.2-76.7V175.8c0-6.1-2.7-8.8-8.8-8.8H865v-53.4H916c24,0,34.7,10.7,34.7,34.7
		l0.8,149.9c0,24.6,7,34.1,25,34.1c7.9,0,13.4-0.5,13.5-0.5l2.6-0.2l-0.6,45.2l-2.1,0.2C989.8,377,979.5,378,967.9,378z"/>
</g>
<g>
	<path class="st0" d="M762.8,377h-119v-48.2h23.8c6.1,0,8.8-2.7,8.8-8.8V171.2c0-6.1-2.7-8.8-8.8-8.8h-23.1v-46.8h49.8
		c23.8,0,35.3,10.6,35.3,32.3v16.2c0,1.9,0,3.6-0.1,5.3c15.5-35.4,44.9-56.9,79-56.9c6.7,0,13.3,1,13.5,1l2,0.3v53.6l-2.8-0.7
		c-0.1,0-6.5-1.5-14.2-1.5c-31.5,0-58.9,23.1-69.9,58.8c-4.3,14-7,32.8-7,49.2V320c0,6.1,2.7,8.8,8.8,8.8h23.8V377z"/>
</g>
<g>
	<path class="st0" d="M919.1,77.1c-17.6,0-31.9-14.3-31.9-32c0-17.6,14.3-31.9,31.9-31.9c17.6,0,31.9,14.3,31.9,31.9
		C951,62.8,936.7,77.1,919.1,77.1z"/>
</g>
<g>
	<path class="st0" d="M1291.3,377.1h-36.7c-24.8,0-33.2-4.7-44.7-25l-46.7-86.3c-4.8-8.4-15-9.4-23.3-9.4h-18.1l-0.2,63.8
		c0,6.1,2.7,8.8,8.8,8.8h23.8V377h-119v-48.2h23.8c6.1,0,8.8-2.7,8.8-8.8l0-250.4c0-6.1-2.7-8.8-8.8-8.8h-23.1V14.1h51.1
		c19.2,0,34.8,15.6,34.8,34.8V210h20.5c6.4,0,18.2-1.3,25.1-10.3l60-84.2h62.1l-72.2,99.1c-7.9,10.7-14.1,16-17.4,18.3
		c3.5,2.3,9.6,7.5,15.6,18.8l38.1,69.5c3.6,7.1,7.6,8.9,19.8,8.9h18.1V377.1z"/>
</g>
<g>
	<path class="st0" d="M1449.4,383.2c-80.5,0-138.9-57.6-138.9-136.9c0-80.6,54-136.9,131.3-136.9c34.8,0,63.9,12.5,84.1,36
		c18.6,21.7,28.9,52.5,28.9,86.6c0,6.7-1.5,20-1.5,20.6l-0.2,2.1h-186.9c4.3,56,45.9,81.1,85.9,81.1c42.7,0,73.2-29,73.5-29.3l2.1-2
		l23.8,39.1l-1.3,1.3C1549.6,345.4,1510.6,383.2,1449.4,383.2z M1368.4,214.1h130.8c-2.2-37-24.8-60.8-58-60.8
		C1403.9,153.2,1376.2,176.5,1368.4,214.1z"/>
</g>
<g>
	<path class="st0" d="M1902,377.8h-58.1c-24.1,0-34.8-10.7-34.8-34.8V222.2c0-37.3-7.8-62.1-45.9-62.1c-37.8,0-68.8,24-79,61.2
		c-3.1,8.9-4.5,19.3-4.5,33.9l0,87.8c0,24.1-10.7,34.8-34.8,34.8h-58.1V331h30.1c6.1,0,8.8-2.7,8.8-8.8l-0.8-125.6
		c0-24.6-7-34.1-25-34.1c-7.9,0-13.4,0.5-13.5,0.5l-2.6,0.2l0.6-45.2l2.1-0.2c0.1,0,10.4-1,22-1c37.9,0,60,16,67.4,49
		c10.3-18.6,38-55.7,96.3-55.7c61,0,90.7,33,90.7,100.8v111.2c0,6.1,2.7,8.8,8.8,8.8h30.1V377.8z"/>
</g>
<g>
	<path class="st0" d="M1305.1,412.8c12.9,0,34,5.6,34,19.3v7.5h-8.5v-5c0-8.5-14.7-13.2-25.2-13.2c-20.2,0-35.7,15.8-35.7,37.7
		c0,21.7,15.4,39.2,36,39.2c18.7,0,29.7-12.8,29.7-12.8l5.2,6.6c0,0-12.5,14.7-35,14.7c-26.6,0-45.4-21.2-45.4-47.7
		C1260.2,432.9,1279.5,412.8,1305.1,412.8z"/>
	<path class="st0" d="M1384.4,438.7c19,0,34.4,14.5,34.4,33.7c0,19.6-15.4,34.4-34.2,34.4c-19,0-34.4-14.7-34.4-34.4
		C1350.2,453.1,1365.5,438.7,1384.4,438.7z M1384.5,498.9c13.8,0,25.2-11.4,25.2-26.5c0-14.7-11.4-25.7-25.2-25.7
		c-14,0-25.3,11-25.3,25.7C1359.2,487.5,1370.6,498.9,1384.5,498.9z"/>
	<path class="st0" d="M1435.2,450.7c0-1.8-1-2.8-2.8-2.8h-5.4v-7.6h9c5.4,0,7.9,2.3,7.9,7.2v3c0,2.6-0.3,4.7-0.3,4.7h0.3
		c2.3-5.9,10.6-16.4,25.8-16.4c16.2,0,21.8,9.2,21.8,25.2v30.9c0,1.9,1,2.8,2.8,2.8h5.4v7.6h-9.2c-5.6,0-7.9-2.3-7.9-7.9v-31.1
		c0-10.2-1.5-19.3-14.1-19.3c-11.1,0-20.7,7.6-23.6,18.3c-0.8,2.7-1,5.7-1,8.8v31.1h-8.8V450.7z"/>
	<path class="st0" d="M1511.3,489.3c0,0,7.2,9.8,20,9.8c7.2,0,13.7-3.5,13.7-10.3c0-14.2-36.4-11.6-36.4-32.6
		c0-11.8,10.1-17.6,23.1-17.6c6.6,0,19.8,2.6,19.8,11.8v5.6h-8.3v-3.1c0-4.8-7-6.6-11.2-6.6c-9,0-14.5,3.1-14.5,9.4
		c0,14.6,36.4,11.2,36.4,32.8c0,10.9-9.8,18.2-22.7,18.2c-16.9,0-24.9-11.4-24.9-11.4L1511.3,489.3z"/>
	<path class="st0" d="M1570.3,450.7c0-1.8-1-2.8-2.8-2.8h-5.4v-7.6h9.2c5.6,0,7.9,2.3,7.9,7.6v31.4c0,10.2,1.7,19.3,14.2,19.3
		c14.7,0,23.9-13.1,23.9-27.1v-31.1h8.8v54.5c0,1.9,1,2.8,2.8,2.8h5.4v7.6h-8.9c-5.4,0-7.9-2.3-7.9-7.2v-3c0-2.6,0.3-4.7,0.3-4.7
		h-0.3c-2.6,6.3-11.1,16.4-25.3,16.4c-15.4,0-21.8-8.3-21.8-25.2V450.7z"/>
	<path class="st0" d="M1648.4,424.9c0-1.8-1-2.8-2.8-2.8h-5.4v-7.6h9.2c5.6,0,7.9,2.3,7.9,7.9v72.5c0,1.9,1,2.8,2.8,2.8h5.4v7.6
		h-9.2c-5.6,0-7.9-2.3-7.9-7.9V424.9z"/>
	<path class="st0" d="M1681,447.6h-8.5v-7.4h8.7v-18h8.7v18h16.3v7.4h-16.3v33.1c0,15.2,9.7,17.2,14.6,17.2c1.8,0,3-0.3,3-0.3v7.9
		c0,0-1.6,0.3-3.7,0.3c-7.5,0-22.6-2.5-22.6-24.2V447.6z"/>
	<path class="st0" d="M1724.1,450.7c0-1.8-1-2.8-2.8-2.8h-5.4v-7.6h9.2c5.6,0,7.9,2.3,7.9,7.9v46.6c0,1.9,1,2.8,2.8,2.8h5.4v7.6
		h-9.2c-5.6,0-7.9-2.3-7.9-7.9V450.7z M1723.8,414.4h8.5v11.1h-8.5V414.4z"/>
	<path class="st0" d="M1755.9,450.7c0-1.8-1-2.8-2.8-2.8h-5.4v-7.6h9c5.4,0,7.9,2.3,7.9,7.2v3c0,2.6-0.3,4.7-0.3,4.7h0.3
		c2.3-5.9,10.6-16.4,25.8-16.4c16.2,0,21.8,9.2,21.8,25.2v30.9c0,1.9,1,2.8,2.8,2.8h5.4v7.6h-9.2c-5.6,0-7.9-2.3-7.9-7.9v-31.1
		c0-10.2-1.5-19.3-14.1-19.3c-11.1,0-20.7,7.6-23.6,18.3c-0.8,2.7-1,5.7-1,8.8v31.1h-8.8V450.7z"/>
	<path class="st0" d="M1856.8,438.7c17.4,0,21.6,11.1,21.6,11.1h0.3c0,0,0-1.2,0-2.5c0-4.7,2.1-7.1,7.4-7.1h9v7.6h-5.3
		c-1.8,0-2.8,0.9-2.8,2.8v53c0,20.7-15.2,28.7-31.3,28.7c-7.4,0-14.9-1.9-21.2-5.2l3.4-7.4c0,0,8,4.5,17.6,4.5
		c12.7,0,22.7-5.9,22.7-20.4v-5.7c0-2.5,0.1-4.7,0.1-4.7h-0.3c-3.9,7.1-10.3,11.2-20.4,11.2c-17.4,0-28.9-13.8-28.9-33.3
		C1828.6,452,1839.4,438.7,1856.8,438.7z M1878.3,471.5c0-19-9-24.8-20.5-24.8c-12.7,0-20,9.2-20,24.7c0,15.5,8.4,25.6,21.2,25.6
		C1869.2,497,1878.3,490.6,1878.3,471.5z"/>
</g>
<g>
	<path class="st0" d="M199,383.2c-85.5,0-128.9-46.5-128.9-138.2V71.1c0-6.1-2.7-8.9-8.9-8.9h-44V14h79.1
		c24.1,0,34.8,10.7,34.8,34.9l-0.2,74.2V233c0,81.5,33.4,95,69.5,95c46.9,0,86.5-27.5,108.7-75.3c3.1-7.9,5.4-15.5,6.5-21.4
		c1.9-10.5,2.3-45.7,2.3-56.3l0.3-99.2c1.2-43.2,37-62.9,70.3-62.9c11.6,0,44.8,1,45.1,1l2.2,0.1l0.6,48.2l-2.4,0
		c-0.2,0-24.1-0.5-32.1-0.5c-18,0-25,9.6-25,34.2l0.8,201.6c0,24.6,7,34.2,25,34.2c8,0,31.8-0.5,32.1-0.5l2.4,0l-0.6,47l-2.2,0.1
		c-0.3,0-31.1,1-42.6,1c-58.7,0-70.7-33.4-74.5-58.4l-0.1-0.7C288.7,359.7,245,383.2,199,383.2z"/>
</g>
</svg>
